<?xml version="1.0" encoding="utf-8"?>
<!-- Generator: Adobe Illustrator 21.0.2, SVG Export Plug-In . SVG Version: 6.00 Build 0)  -->
<!DOCTYPE svg PUBLIC "-//W3C//DTD SVG 1.1//EN" "http://www.w3.org/Graphics/SVG/1.1/DTD/svg11.dtd">
<svg version="1.1" id="Calque_1" xmlns="http://www.w3.org/2000/svg" xmlns:xlink="http://www.w3.org/1999/xlink" x="0px" y="0px"
	 viewBox="0 0 464 53" style="enable-background:new 0 0 464 53;" xml:space="preserve">
<style type="text/css">
	.st0{clip-path:url(#SVGID_2_);}
	.st1{clip-path:url(#SVGID_4_);fill:#202020;}
	.st2{clip-path:url(#SVGID_6_);}
	.st3{clip-path:url(#SVGID_8_);fill:#202020;}
	.st4{clip-path:url(#SVGID_10_);}
	.st5{clip-path:url(#SVGID_12_);fill:#202020;}
	.st6{clip-path:url(#SVGID_14_);}
	.st7{clip-path:url(#SVGID_16_);fill:#202020;}
	.st8{clip-path:url(#SVGID_18_);}
	.st9{clip-path:url(#SVGID_20_);fill:#202020;}
	.st10{clip-path:url(#SVGID_22_);}
	.st11{clip-path:url(#SVGID_24_);fill:#202020;}
	.st12{clip-path:url(#SVGID_26_);}
	.st13{clip-path:url(#SVGID_28_);fill:#202020;}
	.st14{clip-path:url(#SVGID_30_);}
	.st15{clip-path:url(#SVGID_32_);fill:#202020;}
	.st16{clip-path:url(#SVGID_34_);}
	.st17{clip-path:url(#SVGID_36_);fill:#202020;}
	.st18{clip-path:url(#SVGID_38_);}
	.st19{clip-path:url(#SVGID_40_);fill:#202020;}
	.st20{clip-path:url(#SVGID_42_);}
	.st21{clip-path:url(#SVGID_44_);fill:#202020;}
	.st22{clip-path:url(#SVGID_46_);}
	.st23{clip-path:url(#SVGID_48_);enable-background:new    ;}
	.st24{clip-path:url(#SVGID_50_);}
	.st25{clip-path:url(#SVGID_52_);}
	.st26{clip-path:url(#SVGID_54_);fill:#202020;}
</style>
<g>
	<defs>
		<polygon id="SVGID_1_" points="4.8,7 33.4,7 34.2,20.2 33.8,20.2 29.5,8.3 22.4,7.9 22.4,46.4 26.9,47.1 26.9,47.5 11.4,47.5 
			11.4,47.1 16,46.4 16,7.9 8.8,8.3 4.5,20.2 4,20.2 		"/>
	</defs>
	<clipPath id="SVGID_2_">
		<use xlink:href="#SVGID_1_"  style="overflow:visible;"/>
	</clipPath>
	<g class="st0">
		<defs>
			<rect id="SVGID_3_" x="-488" y="-209" width="1440" height="1800"/>
		</defs>
		<clipPath id="SVGID_4_">
			<use xlink:href="#SVGID_3_"  style="overflow:visible;"/>
		</clipPath>
		<rect x="-1" y="2" class="st1" width="40.2" height="50.6"/>
	</g>
</g>
<g>
	<defs>
		<path id="SVGID_5_" d="M75.6,27.3c0,12.2-6.6,21.3-16.6,21.3c-10.3,0-17-9-17-21.5C42.1,15,49,5.9,58.9,5.9
			C69,5.9,75.6,14.6,75.6,27.3 M68.9,27.3c0-12-2.5-20.6-9.9-20.6c-6.9,0-9.8,8.3-9.8,20.4c0,12,2.4,20.6,9.9,20.6
			C65.9,47.8,68.9,39.5,68.9,27.3"/>
	</defs>
	<clipPath id="SVGID_6_">
		<use xlink:href="#SVGID_5_"  style="overflow:visible;"/>
	</clipPath>
	<g class="st2">
		<defs>
			<rect id="SVGID_7_" x="-488" y="-209" width="1440" height="1800"/>
		</defs>
		<clipPath id="SVGID_8_">
			<use xlink:href="#SVGID_7_"  style="overflow:visible;"/>
		</clipPath>
		<rect x="37.1" y="0.9" class="st3" width="43.5" height="52.8"/>
	</g>
</g>
<g>
	<defs>
		<path id="SVGID_9_" d="M88.9,30.6l0.4-22.4l-4.5-0.7V7h15.5v0.5l-4.6,0.7l-0.5,22.9c-0.2,10.1,3.2,15.6,9.5,15.6
			c5.9,0,9.9-5.3,9.7-15.7l-0.6-22.8l-7-0.6V7h13.1v0.6l-4.5,0.6l0.3,22.9c0.1,11.4-4.2,17.6-12.5,17.6
			C94.3,48.6,88.7,42.4,88.9,30.6"/>
	</defs>
	<clipPath id="SVGID_10_">
		<use xlink:href="#SVGID_9_"  style="overflow:visible;"/>
	</clipPath>
	<g class="st4">
		<defs>
			<rect id="SVGID_11_" x="-488" y="-209" width="1440" height="1800"/>
		</defs>
		<clipPath id="SVGID_12_">
			<use xlink:href="#SVGID_11_"  style="overflow:visible;"/>
		</clipPath>
		<rect x="79.8" y="2" class="st5" width="45" height="51.7"/>
	</g>
</g>
<g>
	<defs>
		<path id="SVGID_13_" d="M127.1,47.5v-0.5l4.5-0.7V8.2l-4.5-0.7V7H141c10.5,0,15.5,4.5,15.5,10.9c0,5.4-3.3,9.4-11.8,10V28l6.2,3.7
			l5.7,9.2c2.2,3.6,3.5,5.7,6.6,6.2v0.5c-7.7,1.2-10.7-1-13.3-6.3l-6.6-12.9l-5.3-0.2v18.2l4.5,0.7v0.5H127.1z M149.9,18
			c0-4.7-2-9.7-8-9.9L138,7.9v19.4l3.8-0.1C148,26.9,149.9,22.8,149.9,18z"/>
	</defs>
	<clipPath id="SVGID_14_">
		<use xlink:href="#SVGID_13_"  style="overflow:visible;"/>
	</clipPath>
	<g class="st6">
		<defs>
			<rect id="SVGID_15_" x="-488" y="-209" width="1440" height="1800"/>
		</defs>
		<clipPath id="SVGID_16_">
			<use xlink:href="#SVGID_15_"  style="overflow:visible;"/>
		</clipPath>
		<rect x="122.1" y="2" class="st7" width="46.2" height="50.9"/>
	</g>
</g>
<g>
	<defs>
		<path id="SVGID_17_" d="M185,40.2h-10.9v-0.6l3.6-0.5V14.3l-3.6-0.5v-0.6h10.7c7.9,0,13.7,4.8,13.7,13.5
			C198.5,35.3,192.7,40.2,185,40.2 M185.1,14.2l-2.2-0.1v25.2l2.3-0.1c5.2-0.3,7.7-5.5,7.7-12.5C192.9,19.7,190.4,14.5,185.1,14.2"
			/>
	</defs>
	<clipPath id="SVGID_18_">
		<use xlink:href="#SVGID_17_"  style="overflow:visible;"/>
	</clipPath>
	<g class="st8">
		<defs>
			<rect id="SVGID_19_" x="-488" y="-209" width="1440" height="1800"/>
		</defs>
		<clipPath id="SVGID_20_">
			<use xlink:href="#SVGID_19_"  style="overflow:visible;"/>
		</clipPath>
		<rect x="169.1" y="8.2" class="st9" width="34.5" height="37"/>
	</g>
</g>
<g>
	<defs>
		<path id="SVGID_21_" d="M202.4,25.9c2.7-3.7,4.3-8,4.3-11.6l-3.3-0.5v-0.6h8.2c-1.1,5.2-4.1,9.1-8.7,13L202.4,25.9z"/>
	</defs>
	<clipPath id="SVGID_22_">
		<use xlink:href="#SVGID_21_"  style="overflow:visible;"/>
	</clipPath>
	<g class="st10">
		<defs>
			<rect id="SVGID_23_" x="-488" y="-209" width="1440" height="1800"/>
		</defs>
		<clipPath id="SVGID_24_">
			<use xlink:href="#SVGID_23_"  style="overflow:visible;"/>
		</clipPath>
		<rect x="197.4" y="8.3" class="st11" width="19.2" height="23"/>
	</g>
</g>
<g>
	<defs>
		<path id="SVGID_25_" d="M214.6,47.5v-0.5l2.8-0.7l15.4-41.9h0.8l14.7,41.9l2.8,0.7v0.5h-14v-0.5l4.4-0.7l-4.9-14.7l-6.1,5.4
			l-6.3-5.5L219,46.4l6.5,0.7v0.5H214.6z M236.3,30.7l-5.8-17.4l-6,17.3l6.1,4.3L236.3,30.7z"/>
	</defs>
	<clipPath id="SVGID_26_">
		<use xlink:href="#SVGID_25_"  style="overflow:visible;"/>
	</clipPath>
	<g class="st12">
		<defs>
			<rect id="SVGID_27_" x="-488" y="-209" width="1440" height="1800"/>
		</defs>
		<clipPath id="SVGID_28_">
			<use xlink:href="#SVGID_27_"  style="overflow:visible;"/>
		</clipPath>
		<rect x="209.6" y="-0.5" class="st13" width="46.5" height="53.1"/>
	</g>
</g>
<g>
	<defs>
		<path id="SVGID_29_" d="M258,47.5v-0.5l4.5-0.7V8.2L258,7.5V7h13.9c10.5,0,15.5,4.5,15.5,10.9c0,5.4-3.3,9.4-11.8,10V28l6.2,3.7
			l5.7,9.2c2.2,3.6,3.5,5.7,6.6,6.2v0.5c-7.7,1.2-10.7-1-13.3-6.3l-6.6-12.9l-5.3-0.2v18.2l4.5,0.7v0.5H258z M280.8,18
			c0-4.7-2-9.7-8-9.9L269,7.9v19.4l3.8-0.1C278.9,26.9,280.8,22.8,280.8,18z"/>
	</defs>
	<clipPath id="SVGID_30_">
		<use xlink:href="#SVGID_29_"  style="overflow:visible;"/>
	</clipPath>
	<g class="st14">
		<defs>
			<rect id="SVGID_31_" x="-488" y="-209" width="1440" height="1800"/>
		</defs>
		<clipPath id="SVGID_32_">
			<use xlink:href="#SVGID_31_"  style="overflow:visible;"/>
		</clipPath>
		<rect x="253" y="2" class="st15" width="46.2" height="50.9"/>
	</g>
</g>
<g>
	<defs>
		<path id="SVGID_33_" d="M332,48.6h-0.5l-3.7-1.9c-2.6,1.1-5.8,1.9-8.8,1.9c-12.1,0-18-9.8-18-21.5c0-12.2,6.6-21.3,18.6-21.3
			c3.2,0,6.2,0.8,8.5,2l2.8-2.7l0.9,13.4h-0.4L327,9c-2-1.3-4.6-2.2-7.6-2.2c-8.3,0-11.4,8.6-11.4,20.4c0,10.7,3.4,20.4,11.7,20.4
			c2.1,0,4.1-0.5,5.8-1.2V30.7l-6-0.7v-0.5h16.2v0.5l-3.7,0.7V48.6z"/>
	</defs>
	<clipPath id="SVGID_34_">
		<use xlink:href="#SVGID_33_"  style="overflow:visible;"/>
	</clipPath>
	<g class="st16">
		<defs>
			<rect id="SVGID_35_" x="-488" y="-209" width="1440" height="1800"/>
		</defs>
		<clipPath id="SVGID_36_">
			<use xlink:href="#SVGID_35_"  style="overflow:visible;"/>
		</clipPath>
		<rect x="295.9" y="0.2" class="st17" width="44.7" height="53.5"/>
	</g>
</g>
<g>
	<defs>
		<polygon id="SVGID_37_" points="373.5,47.5 345.2,47.5 345.2,47.1 349.7,46.4 349.7,8.2 345.2,7.5 345.2,7 372.7,7 373.5,18.6 
			373.1,18.6 368.7,8.3 356.2,7.9 356.2,26.4 366.3,26.2 368.8,20.5 369.2,20.5 369.2,33.4 368.9,33.4 366.3,27.4 356.2,27.3 
			356.2,46.7 369.7,46.2 374.5,34 374.9,34 		"/>
	</defs>
	<clipPath id="SVGID_38_">
		<use xlink:href="#SVGID_37_"  style="overflow:visible;"/>
	</clipPath>
	<g class="st18">
		<defs>
			<rect id="SVGID_39_" x="-488" y="-209" width="1440" height="1800"/>
		</defs>
		<clipPath id="SVGID_40_">
			<use xlink:href="#SVGID_39_"  style="overflow:visible;"/>
		</clipPath>
		<rect x="340.2" y="2" class="st19" width="39.7" height="50.6"/>
	</g>
</g>
<g>
	<defs>
		<polygon id="SVGID_41_" points="399.4,47.5 385.6,47.5 385.6,47.1 390.1,46.4 390.1,8.7 385.6,7.5 385.6,7 396.6,7 416.8,41.2 
			416.3,8.2 408.6,7.5 408.6,7 422.4,7 422.4,7.5 417.8,8.2 417.8,42.8 420.3,47.1 420.3,47.5 413.4,47.5 391.1,10.4 391.7,46.4 
			399.4,47.1 		"/>
	</defs>
	<clipPath id="SVGID_42_">
		<use xlink:href="#SVGID_41_"  style="overflow:visible;"/>
	</clipPath>
	<g class="st20">
		<defs>
			<rect id="SVGID_43_" x="-488" y="-209" width="1440" height="1800"/>
		</defs>
		<clipPath id="SVGID_44_">
			<use xlink:href="#SVGID_43_"  style="overflow:visible;"/>
		</clipPath>
		<rect x="380.6" y="2" class="st21" width="46.8" height="50.6"/>
	</g>
</g>
<g>
	<defs>
		<rect id="SVGID_45_" x="429.9" y="7" width="30.2" height="40.6"/>
	</defs>
	<clipPath id="SVGID_46_">
		<use xlink:href="#SVGID_45_"  style="overflow:visible;"/>
	</clipPath>
	<g class="st22">
		<defs>
			<rect id="SVGID_47_" x="-488" y="-209" width="1440" height="1800"/>
		</defs>
		<clipPath id="SVGID_48_">
			<use xlink:href="#SVGID_47_"  style="overflow:visible;"/>
		</clipPath>
		<g class="st23">
			<g>
				<defs>
					<rect id="SVGID_49_" x="429" y="6" width="32" height="42"/>
				</defs>
				<clipPath id="SVGID_50_">
					<use xlink:href="#SVGID_49_"  style="overflow:visible;"/>
				</clipPath>
				<g class="st24">
					<defs>
						<polygon id="SVGID_51_" points="430.7,7 459.4,7 460.2,20.2 459.8,20.2 455.4,8.3 448.3,7.9 448.3,46.4 452.8,47.1 
							452.8,47.5 437.4,47.5 437.4,47.1 441.9,46.4 441.9,7.9 434.7,8.3 430.4,20.2 429.9,20.2 						"/>
					</defs>
					<clipPath id="SVGID_52_">
						<use xlink:href="#SVGID_51_"  style="overflow:visible;"/>
					</clipPath>
					<g class="st25">
						<defs>
							<rect id="SVGID_53_" x="429" y="6" width="32" height="42"/>
						</defs>
						<clipPath id="SVGID_54_">
							<use xlink:href="#SVGID_53_"  style="overflow:visible;"/>
						</clipPath>
						<rect x="424.9" y="2" class="st26" width="40.2" height="50.6"/>
					</g>
				</g>
			</g>
		</g>
	</g>
</g>
</svg>
